<?xml version="1.0" encoding="UTF-8"?>
<svg id="Layer_1" data-name="Layer 1" xmlns="http://www.w3.org/2000/svg" version="1.1" viewBox="0 0 58 58">
  <defs>
    <style>
      .cls-1 {
        fill: #f7f7f7;
        fill-rule: evenodd;
      }

      .cls-1, .cls-2 {
        stroke-width: 0px;
      }

      .cls-2 {
        fill: #6c63ff;
      }
    </style>
  </defs>
  <circle class="cls-2" cx="29" cy="29" r="25"/>
  <path class="cls-1" d="M27.5,39.5c0,.4.2.8.4,1.1.3.3.7.4,1.1.4s.8-.2,1.1-.4c.3-.3.4-.7.4-1.1v-9h9c.4,0,.8-.2,1.1-.4.3-.3.4-.7.4-1.1s-.2-.8-.4-1.1c-.3-.3-.7-.4-1.1-.4h-9v-9c0-.4-.2-.8-.4-1.1-.3-.3-.7-.4-1.1-.4s-.8.2-1.1.4c-.3.3-.4.7-.4,1.1v9h-9c-.4,0-.8.2-1.1.4-.3.3-.4.7-.4,1.1s.2.8.4,1.1c.3.3.7.4,1.1.4h9v9Z"/>
</svg>